Coordinates
version=1
nRows=14
nColumns=40
inDegrees=yes

Units are S.I. units (second, meters, Newtons, ...)
If the header above contains a line with 'inDegrees', this indicates whether rotational values are in degrees (yes) or radians (no).

endheader
time	pelvis_tilt	pelvis_list	pelvis_rotation	pelvis_tx	pelvis_ty	pelvis_tz	hip_flexion_r	hip_adduction_r	hip_rotation_r	knee_angle_r	knee_angle_r_beta	ankle_angle_r	subtalar_angle_r	mtp_angle_r	hip_flexion_l	hip_adduction_l	hip_rotation_l	knee_angle_l	knee_angle_l_beta	ankle_angle_l	subtalar_angle_l	mtp_angle_l	lumbar_extension	lumbar_bending	lumbar_rotation	arm_flex_r	arm_add_r	arm_rot_r	elbow_flex_r	pro_sup_r	wrist_flex_r	wrist_dev_r	arm_flex_l	arm_add_l	arm_rot_l	elbow_flex_l	pro_sup_l	wrist_flex_l	wrist_dev_l
      0.20000000	      5.43911197	      7.15966189	     -4.37717513	      0.01801847	      0.94883420	     -0.21601590	     -8.35211866	    -13.39452720	     -6.41213892	     46.87008897	      0.81803737	    -16.71473883	      0.00000000	      0.00000000	     15.87902846	      6.61381240	     -5.97570679	     25.57525382	      0.44637239	      2.64316606	      0.00000000	      0.00000000	    -15.83271892	    -12.16319703	      7.68908885	      0.55764911	     -7.94392291	      5.78000171	     45.03227635	     88.80508475	     -1.60556672	     11.35599636	     -4.45935735	     -9.68046474	      7.92199399	     40.50660523	     89.32802964	    -15.26487652	      6.97356431
      0.21000000	      5.35688382	      7.61912432	     -4.61832816	      0.02961341	      0.94974276	     -0.21724669	     -6.45453305	    -14.33654475	     -5.73279566	     49.65288467	      0.86660632	    -17.31079973	      0.00000000	      0.00000000	     15.18557374	      7.20517823	     -6.33716713	     25.42208979	      0.44369917	      3.37638459	      0.00000000	      0.00000000	    -15.65303040	    -12.65262863	      7.21591415	      0.52500194	     -7.98821016	      7.07334228	     44.28415538	     88.82733699	     -1.29092474	     11.63685521	     -3.98776381	     -9.78403290	      8.13636224	     40.60236637	     89.32596077	    -15.22881361	      6.92607589
      0.22000000	      5.16936288	      7.97316225	     -4.79846785	      0.04085499	      0.95057136	     -0.21846992	     -4.38523328	    -15.06059353	     -4.95753031	     52.32098543	      0.91317346	    -17.22734645	      0.00000000	      0.00000000	     14.57442598	      7.69389556	     -6.64346215	     25.18486157	      0.43955876	      4.08944703	      0.00000000	      0.00000000	    -15.40951071	    -13.00177775	      6.63756747	      0.57991604	     -8.01669095	      8.39522234	     43.52548148	     88.84337350	     -0.94509167	     11.89984909	     -3.52285716	     -9.86418455	      8.19922024	     40.73816076	     89.32737497	    -15.38049556	      6.78653838
      0.23000000	      5.44356285	      8.00506746	     -4.76969495	      0.05191268	      0.95239721	     -0.21995018	     -2.98799574	    -15.38278874	     -4.46054940	     54.54523360	      0.95199392	    -16.90710736	      0.00000000	      0.00000000	     13.38101814	      7.99702788	     -6.35354211	     24.85690594	      0.43383485	      4.80550539	      0.00000000	      0.00000000	    -15.79601579	    -12.96670458	      6.01371992	      0.46959587	     -8.06298121	      9.19573788	     43.11422397	     88.90071128	     -0.77544902	     12.01241739	     -2.78686044	     -9.93273894	      8.51244689	     40.77855942	     89.33529273	    -15.38032144	      6.73003555
      0.24000000	      5.05756542	      8.45735860	     -5.11416959	      0.06302522	      0.95301849	     -0.22093598	     -0.54786588	    -16.12947055	     -3.52197933	     56.96329254	      0.99419701	    -15.56942287	      0.00000000	      0.00000000	     12.91934374	      8.53455834	     -6.94759859	     24.40623012	      0.42596907	      5.15444496	      0.00000000	      0.00000000	    -15.18244107	    -13.39865534	      5.52131685	      0.65265125	     -8.04657336	     10.66468175	     42.10854771	     88.87246283	     -0.42532158	     12.39217491	     -2.34086911	    -10.06171679	      8.69917107	     40.84951395	     89.33038792	    -15.72991369	      6.56039335
      0.25000000	      4.96234641	      8.54643202	     -5.21857811	      0.07394573	      0.95434084	     -0.22215164	      1.39292346	    -16.39896161	     -2.85797483	     58.93353160	      1.02858417	    -14.23481872	      0.00000000	      0.00000000	     12.07795380	      8.82567296	     -6.90525427	     23.91849647	      0.41745652	      5.59738403	      0.00000000	      0.00000000	    -15.03486549	    -13.38810619	      4.91229730	      0.67619301	     -8.02750896	     11.58842307	     41.47879100	     88.88990043	     -0.18447090	     12.57673644	     -1.75481225	    -10.14058226	      8.86542965	     40.92297820	     89.33729739	    -16.14160636	      6.34861876
      0.26000000	      5.19272953	      8.35027353	     -5.15933793	      0.08471808	      0.95642452	     -0.22351378	      2.80573794	    -16.31779710	     -2.45010563	     60.43235655	      1.05474360	    -13.10023322	      0.00000000	      0.00000000	     10.79821399	      8.90751986	     -6.47498432	     23.31909190	      0.40699493	      5.99793523	      0.00000000	      0.00000000	    -15.36318014	    -13.04920989	      4.27016269	      0.55055191	     -7.99018957	     11.97143051	     41.14439254	     88.92570049	     -0.10694789	     12.63957975	     -0.97975277	    -10.17679444	      9.04646163	     40.96966315	     89.34808777	    -16.20299161	      6.30168235
      0.27000000	      5.16388217	      8.41223468	     -5.22360879	      0.09577435	      0.95794369	     -0.22470124	      4.53439047	    -16.50002137	     -2.02206437	     61.81457613	      1.07886788	    -10.99178248	      0.00000000	      0.00000000	      9.79575408	      9.18280115	     -6.47409096	     22.66337318	      0.39555048	      6.24672939	      0.00000000	      0.00000000	    -15.20217176	    -12.97443861	      3.69048120	      0.48730698	     -7.94083901	     12.66784511	     40.55505136	     88.90979857	      0.02090343	     12.82515393	     -0.32130041	    -10.29719220	      9.34944765	     41.00997539	     89.35130167	    -16.51036026	      6.23444447
      0.28000000	      5.28173505	      8.18093922	     -5.18227525	      0.10649957	      0.95992337	     -0.22584874	      6.02186064	    -16.26597416	     -1.66054414	     62.78579067	      1.09581877	     -9.77855854	      0.00000000	      0.00000000	      8.57894885	      9.20045000	     -6.02547964	     21.92854049	      0.38272523	      6.47162408	      0.00000000	      0.00000000	    -15.35171884	    -12.57578312	      3.09308442	      0.33629368	     -7.84292633	     12.83501458	     40.22548970	     88.92157248	      0.04411880	     12.87867855	      0.41996826	    -10.34992978	      9.41875743	     41.14638235	     89.35999159	    -16.61920060	      6.20470704
      0.29000000	      5.28409999	      8.09801907	     -5.14798847	      0.11746137	      0.96158579	     -0.22692083	      7.54991917	    -16.19484785	     -1.45780401	     63.51039754	      1.10846555	     -7.77912275	      0.00000000	      0.00000000	      7.47892937	      9.33157374	     -5.81185616	     21.17126736	      0.36950832	      6.64578939	      0.00000000	      0.00000000	    -15.26700398	    -12.32891649	      2.50493406	      0.17090864	     -7.74038484	     13.09622702	     39.80975313	     88.90592438	      0.05670535	     12.95950839	      1.11178421	    -10.43519963	      9.52364640	     41.30022613	     89.37027407	    -16.94875597	      6.19076047
      0.30000000	      5.34797495	      7.84302884	     -5.07408905	      0.12826507	      0.96338074	     -0.22793046	      8.96408578	    -15.86452228	     -1.28896850	     63.89873766	      1.11524336	     -6.67062230	      0.00000000	      0.00000000	      6.28207638	      9.29157029	     -5.45719286	     20.36289306	      0.35539953	      6.78514137	      0.00000000	      0.00000000	    -15.28244378	    -11.89156396	      1.93826597	     -0.05713064	     -7.62559965	     13.08278498	     39.54725596	     88.89497312	      0.03206929	     12.97714230	      1.80708792	    -10.51227048	      9.49391621	     41.55360143	     89.37704308	    -17.07048244	      6.17319299
      0.31000000	      5.40451143	      7.63507517	     -4.96286603	      0.13912961	      0.96510283	     -0.22881944	     10.24103816	    -15.55804455	     -1.27287722	     63.93166559	      1.11581806	     -5.07668860	      0.00000000	      0.00000000	      5.07386683	      9.28078922	     -5.10131853	     19.51618450	      0.34062168	      6.91846076	      0.00000000	      0.00000000	    -15.29584479	    -11.51313298	      1.39850918	     -0.32044108	     -7.49175718	     13.01116668	     39.29220339	     88.88235464	     -0.02900378	     12.95855975	      2.51621499	    -10.57581854	      9.35557050	     41.87849164	     89.38120198	    -17.29931159	      6.18174744
      0.32000000	      5.62084348	      7.37682870	     -4.71142121	      0.15002759	      0.96695960	     -0.22991873	     11.20271451	    -15.20414892	     -1.44348036	     63.64037875	      1.11073415	     -3.80508102	      0.00000000	      0.00000000	      3.65951879	      9.23179355	     -4.68786727	     18.62442517	      0.32505754	      7.00607511	      0.00000000	      0.00000000	    -15.51725019	    -11.05608494	      0.69177845	     -0.59425434	     -7.37022633	     12.85294656	     39.14073444	     88.87061254	     -0.18851537	     12.80070391	      3.15184995	    -10.61592638	      9.06508142	     42.43746730	     89.38915498	    -17.73810765	      6.22214988
      0.33000000	      5.57110898	      7.14047688	     -4.64008795	      0.16070360	      0.96825012	     -0.23053778	     12.52798986	    -14.78474497	     -1.46835932	     63.13764892	      1.10195986	     -3.04416953	      0.00000000	      0.00000000	      2.55670222	      9.14094026	     -4.46476185	     17.72076847	      0.30928576	      7.13275369	      0.00000000	      0.00000000	    -15.41749519	    -10.64830603	      0.21987389	     -0.85646594	     -7.23812601	     12.71719597	     39.01263395	     88.84080034	     -0.24283211	     12.77108929	      3.82362121	    -10.72484020	      8.88655862	     42.90773690	     89.39087449	    -17.80300852	      6.18630472
